<svg id="Layer_1" data-name="Layer 1" xmlns="http://www.w3.org/2000/svg" width="670.49" height="491.71" viewBox="0 0 670.49 491.71"><rect y="202.34" width="41.31" height="257.14" style="fill:#f3cb14"/><rect x="117.23" y="191" width="41.31" height="268.78" style="fill:#f3cb14"/><rect x="233.58" y="111.3" width="41.31" height="348.48" style="fill:#f3cb14"/><rect x="280.7" y="25.78" width="41.31" height="434" style="fill:#e73a5e"/><rect x="397.64" y="50.79" width="41.31" height="408.98" style="fill:#e73a5e"/><rect x="349.93" y="129.91" width="41.31" height="329.86" style="fill:#f3cb14"/><rect x="466.87" y="297.46" width="41.31" height="162.31" style="fill:#f3cb14"/><rect x="513.41" y="192.74" width="41.31" height="267.03" style="fill:#e73a5e"/><rect x="583.8" y="404.51" width="41.31" height="55.27" style="fill:#f3cb14"/><rect x="629.18" y="229.4" width="41.31" height="230.38" style="fill:#e73a5e"/><rect x="163.77" y="131.08" width="41.31" height="328.7" style="fill:#e73a5e"/><rect x="47.41" y="110.71" width="41.31" height="349.06" style="fill:#e73a5e"/><path d="M17.69,477.72h-3.8v-1.34H23v1.34H19.18v10.67H17.69Z" style="fill:#284a5b"/><path d="M22.35,484a4.31,4.31,0,1,1,4.3,4.58A4.26,4.26,0,0,1,22.35,484Zm7.18,0c0-1.76-1-3.34-2.88-3.34s-2.9,1.58-2.9,3.34,1.05,3.37,2.9,3.37S29.53,485.82,29.53,484Z" style="fill:#284a5b"/><path d="M33.42,486.57v-5.69H32V479.7h1.44v-2.38h1.35v2.38h1.76v1.18H34.77v5.41c0,.64.29,1.11.88,1.11a1.3,1.3,0,0,0,.92-.36l.4,1a2.24,2.24,0,0,1-1.62.56A1.78,1.78,0,0,1,33.42,486.57Z" style="fill:#284a5b"/><path d="M43.88,487.4A3.77,3.77,0,0,1,41,488.61a2.9,2.9,0,0,1-3-2.88,2.85,2.85,0,0,1,3-2.87,3.63,3.63,0,0,1,2.88,1.19v-1.56c0-1.17-.94-1.84-2.2-1.84A3.44,3.44,0,0,0,39,481.86l-.63-.94a4.54,4.54,0,0,1,3.47-1.44c1.84,0,3.37.83,3.37,2.93v6H43.88Zm0-2.48a2.91,2.91,0,0,0-2.4-1.08,1.91,1.91,0,1,0,0,3.8,2.91,2.91,0,0,0,2.4-1.08Z" style="fill:#284a5b"/><path d="M47.93,476.38h1.35v12H47.93Z" style="fill:#284a5b"/><path d="M56.67,476.38H61.5a3.62,3.62,0,1,1,0,7.24H58.17v4.77h-1.5Zm4.65,1.34H58.17v4.57h3.15a2.29,2.29,0,1,0,0-4.57Z" style="fill:#284a5b"/><path d="M66.45,484a4.31,4.31,0,1,1,4.3,4.58A4.26,4.26,0,0,1,66.45,484Zm7.18,0c0-1.76-1-3.34-2.88-3.34s-2.9,1.58-2.9,3.34,1.05,3.37,2.9,3.37S73.63,485.82,73.63,484Z" style="fill:#284a5b"/><path d="M77.25,491.71v-12H78.6V481a3.64,3.64,0,0,1,2.93-1.51c2.29,0,3.87,1.73,3.87,4.55s-1.58,4.58-3.87,4.58a3.56,3.56,0,0,1-2.93-1.53v4.63Zm3.94-11a3.23,3.23,0,0,0-2.59,1.38V486a3.24,3.24,0,0,0,2.59,1.4C82.94,487.4,84,486,84,484S82.94,480.69,81.19,480.69Z" style="fill:#284a5b"/><path d="M145,476.18a5.71,5.71,0,0,1,4.66,2.26l-1.19.73a4.41,4.41,0,0,0-3.47-1.65,4.89,4.89,0,0,0,0,9.77,4.74,4.74,0,0,0,3.22-1.29v-2.45h-4.12v-1.33h5.62v4.34a6.28,6.28,0,0,1-4.72,2.07,6.23,6.23,0,0,1,0-12.45Z" style="fill:#284a5b"/><path d="M155.86,479.48c2.63,0,4.18,2,4.18,4.66v.34h-7a3.06,3.06,0,0,0,3.13,3,3.76,3.76,0,0,0,2.68-1.1l.65.89a4.73,4.73,0,0,1-3.46,1.33,4.57,4.57,0,0,1-.14-9.13Zm-2.86,4h5.7a2.81,2.81,0,0,0-2.86-2.89A2.89,2.89,0,0,0,153,483.49Z" style="fill:#284a5b"/><path d="M168.08,482.7c0-1.53-.77-2-1.94-2a3.34,3.34,0,0,0-2.58,1.35v6.35h-1.35V479.7h1.35V481a4.31,4.31,0,0,1,3.1-1.48,2.47,2.47,0,0,1,2.77,2.81v6.1h-1.35Z" style="fill:#284a5b"/><path d="M176.29,487.15l6.75-9.43h-6.75v-1.34H185v1.24l-6.75,9.44h6.87v1.33h-8.78Z" style="fill:#284a5b"/><path d="M9.46,230a6.21,6.21,0,0,0,3,.86c2.37,0,3.11-1.52,3.09-2.65,0-1.91-1.74-2.73-3.53-2.73H11v-1.38h1c1.35,0,3.05-.7,3.05-2.31,0-1.1-.7-2.06-2.4-2.06a5,5,0,0,0-2.73.9l-.48-1.34a6.44,6.44,0,0,1,3.57-1.05c2.69,0,3.9,1.59,3.9,3.25a3.4,3.4,0,0,1-2.52,3.22v0a3.55,3.55,0,0,1,3.05,3.5c0,2.19-1.7,4.1-5,4.1A6.91,6.91,0,0,1,9,231.37Z" style="fill:#fff"/><path d="M20,228.6A3.89,3.89,0,0,1,22.75,225l0-.06a3.39,3.39,0,0,1-2.16-3.07c0-2.16,1.82-3.63,4.22-3.63,2.64,0,4,1.66,4,3.36a3.48,3.48,0,0,1-2.25,3.19v.06a3.78,3.78,0,0,1,2.75,3.53c0,2.37-2,4-4.64,4C21.76,232.3,20,230.6,20,228.6Zm7.35-.08c0-1.66-1.15-2.46-3-3a3,3,0,0,0-2.46,2.81,2.52,2.52,0,0,0,2.73,2.6A2.46,2.46,0,0,0,27.39,228.52Zm-5.08-6.83c0,1.37,1,2.1,2.6,2.52A2.67,2.67,0,0,0,27,221.74a2.12,2.12,0,0,0-2.31-2.23A2.17,2.17,0,0,0,22.31,221.69Z" style="fill:#fff"/><path d="M66,127.4h-5.2l-.53,3.51a6.38,6.38,0,0,1,1.12-.09,5.68,5.68,0,0,1,2.93.74,3.87,3.87,0,0,1,2,3.5c0,2.67-2.12,4.66-5.08,4.66a6.67,6.67,0,0,1-3.4-.84l.46-1.4a6.17,6.17,0,0,0,2.92.75,3,3,0,0,0,3.23-3c0-1.76-1.2-3-3.93-3a13.15,13.15,0,0,0-1.89.15l.89-6.55H66Z" style="fill:#fff"/><path d="M69.08,139.49v-1.13L70.53,137c3.48-3.31,5.06-5.08,5.08-7.14a2.43,2.43,0,0,0-2.71-2.66A4.62,4.62,0,0,0,70,128.3l-.59-1.3a6,6,0,0,1,3.86-1.39,3.84,3.84,0,0,1,4.18,4c0,2.52-1.83,4.56-4.7,7.33l-1.1,1v0h6.13v1.53Z" style="fill:#fff"/><path d="M131.25,217.94v-3.72h-6.34V213l6.09-8.72h2v8.48h1.91v1.45H133v3.72Zm0-5.17v-4.55c0-.71,0-1.43.06-2.14h-.06c-.42.79-.76,1.38-1.14,2l-3.33,4.64v0Z" style="fill:#fff"/><path d="M145.8,211c0,4.64-1.72,7.2-4.75,7.2-2.66,0-4.47-2.5-4.51-7s2-7.1,4.75-7.1S145.8,206.62,145.8,211Zm-7.41.21c0,3.55,1.09,5.56,2.77,5.56,1.89,0,2.79-2.2,2.79-5.69s-.86-5.56-2.77-5.56C139.56,205.49,138.39,207.46,138.39,211.18Z" style="fill:#fff"/><path d="M178,159.27v-3.71H171.7v-1.22l6.09-8.71h2v8.48h1.91v1.45h-1.91v3.71Zm0-5.16v-4.56c0-.71,0-1.43.07-2.14H178c-.42.8-.75,1.39-1.13,2l-3.34,4.64v0Z" style="fill:#fff"/><path d="M184.59,158a8.18,8.18,0,0,0,1.5-.06,5.19,5.19,0,0,0,2.85-1.32,6,6,0,0,0,1.81-3.64h-.07a4.1,4.1,0,0,1-7.24-2.7,4.68,4.68,0,0,1,4.66-4.85c2.79,0,4.52,2.26,4.52,5.75a8.59,8.59,0,0,1-2.36,6.4,6.84,6.84,0,0,1-4,1.83,8.34,8.34,0,0,1-1.71.1Zm.68-7.85a2.63,2.63,0,0,0,2.62,2.9,3.05,3.05,0,0,0,2.69-1.43,1.27,1.27,0,0,0,.17-.67c0-2.33-.86-4.12-2.8-4.12C186.38,146.8,185.27,148.19,185.27,150.12Z" style="fill:#fff"/><path d="M251.13,128.82h-5.21l-.53,3.5a7.75,7.75,0,0,1,1.12-.08,5.81,5.81,0,0,1,2.94.73,3.9,3.9,0,0,1,2,3.51c0,2.67-2.12,4.66-5.08,4.66a6.67,6.67,0,0,1-3.4-.84l.46-1.4a6.2,6.2,0,0,0,2.92.75,3,3,0,0,0,3.23-3c0-1.76-1.2-3-3.93-3a14.68,14.68,0,0,0-1.88.14l.88-6.55h6.53Z" style="fill:#fff"/><path d="M254.17,140.91v-1.13l1.45-1.41c3.49-3.32,5.06-5.08,5.08-7.14a2.43,2.43,0,0,0-2.71-2.66,4.67,4.67,0,0,0-2.89,1.15l-.59-1.3a6,6,0,0,1,3.86-1.39,3.84,3.84,0,0,1,4.18,4c0,2.52-1.83,4.56-4.7,7.33l-1.09,1v0h6.13v1.53Z" style="fill:#fff"/><path d="M298.22,42.54a6.24,6.24,0,0,0-1.38.08,5.55,5.55,0,0,0-4.75,4.85h.06a4.07,4.07,0,0,1,3.3-1.57c2.41,0,4.11,1.74,4.11,4.4A4.56,4.56,0,0,1,295,55.11c-2.92,0-4.83-2.27-4.83-5.81a8.58,8.58,0,0,1,2.31-6.15,7.39,7.39,0,0,1,4.37-2,9.51,9.51,0,0,1,1.34-.11Zm-.52,7.87c0-1.95-1.12-3.13-2.82-3.13A3,3,0,0,0,292.24,49a1.53,1.53,0,0,0-.21.82c0,2.25,1.07,3.9,3,3.9C296.63,53.68,297.7,52.36,297.7,50.41Z" style="fill:#fff"/><path d="M309.77,42.79h-5.21l-.52,3.5a7.6,7.6,0,0,1,1.11-.08,5.71,5.71,0,0,1,2.94.74,3.87,3.87,0,0,1,2,3.5c0,2.67-2.12,4.66-5.08,4.66a6.67,6.67,0,0,1-3.4-.84l.46-1.4a6.2,6.2,0,0,0,2.92.75,3,3,0,0,0,3.24-3c0-1.76-1.2-3-3.93-3a12.9,12.9,0,0,0-1.89.15l.88-6.56h6.53Z" style="fill:#fff"/><path d="M365.12,159.86v-3.72h-6.34v-1.22l6.09-8.71h2v8.48h1.91v1.45h-1.91v3.72Zm0-5.17v-4.55c0-.72,0-1.43.06-2.15h-.06c-.42.8-.76,1.39-1.14,2l-3.33,4.64v0Z" style="fill:#fff"/><path d="M371.67,158.55a7.28,7.28,0,0,0,1.49-.06,5.16,5.16,0,0,0,2.86-1.32,6,6,0,0,0,1.8-3.63h-.06a4,4,0,0,1-3.21,1.47,4,4,0,0,1-4-4.18,4.68,4.68,0,0,1,4.67-4.85c2.79,0,4.51,2.27,4.51,5.75a8.63,8.63,0,0,1-2.35,6.4,6.84,6.84,0,0,1-4,1.83,8.35,8.35,0,0,1-1.7.11Zm.67-7.85a2.63,2.63,0,0,0,2.63,2.9,3,3,0,0,0,2.68-1.43,1.18,1.18,0,0,0,.17-.67c0-2.33-.86-4.12-2.79-4.12C373.45,147.38,372.34,148.77,372.34,150.7Z" style="fill:#fff"/><path d="M477,326.24v-1.13l1.45-1.41c3.49-3.32,5.06-5.08,5.09-7.14a2.44,2.44,0,0,0-2.71-2.66,4.62,4.62,0,0,0-2.9,1.15l-.59-1.3a6,6,0,0,1,3.86-1.39,3.84,3.84,0,0,1,4.18,4c0,2.52-1.82,4.56-4.7,7.33l-1.09,1v0h6.13v1.53Z" style="fill:#fff"/><path d="M493.92,326.24v-3.72h-6.34v-1.21l6.09-8.72h2v8.49h1.91v1.44h-1.91v3.72Zm0-5.16v-4.56c0-.71,0-1.43.06-2.14h-.06c-.42.8-.76,1.39-1.14,2L489.45,321v.05Z" style="fill:#fff"/><path d="M528.11,222.94v-3.72h-6.35V218l6.09-8.72h2v8.48h1.91v1.45h-1.91v3.72Zm0-5.17v-4.55c0-.71,0-1.43.06-2.14h-.06c-.42.79-.76,1.38-1.14,2l-3.34,4.64v0Z" style="fill:#fff"/><path d="M542.66,216c0,4.64-1.72,7.2-4.75,7.2-2.66,0-4.47-2.5-4.51-7s2-7.1,4.74-7.1S542.66,211.62,542.66,216Zm-7.41.21c0,3.55,1.09,5.56,2.77,5.56,1.89,0,2.79-2.2,2.79-5.69s-.86-5.56-2.77-5.56C536.42,210.49,535.25,212.46,535.25,216.18Z" style="fill:#fff"/><path d="M599.76,430.66a3.89,3.89,0,0,1,2.71-3.65l0-.07a3.38,3.38,0,0,1-2.16-3.06c0-2.17,1.83-3.63,4.22-3.63,2.65,0,4,1.65,4,3.35a3.48,3.48,0,0,1-2.25,3.2v.06a3.78,3.78,0,0,1,2.75,3.53c0,2.37-2,4-4.64,4C601.49,434.35,599.76,432.65,599.76,430.66Zm7.35-.08c0-1.66-1.15-2.46-3-3a3,3,0,0,0-2.45,2.82,2.51,2.51,0,0,0,2.72,2.6A2.47,2.47,0,0,0,607.11,430.58ZM602,423.75c0,1.37,1,2.1,2.61,2.52a2.7,2.7,0,0,0,2.08-2.48,2.12,2.12,0,0,0-2.31-2.22A2.17,2.17,0,0,0,602,423.75Z" style="fill:#fff"/><path d="M637.94,259.22a6.21,6.21,0,0,0,3,.86c2.37,0,3.11-1.51,3.09-2.65,0-1.91-1.75-2.73-3.53-2.73h-1v-1.38h1c1.34,0,3-.7,3-2.31,0-1.09-.69-2.06-2.39-2.06a5,5,0,0,0-2.73.9l-.48-1.34a6.44,6.44,0,0,1,3.57-1c2.69,0,3.9,1.59,3.9,3.25a3.4,3.4,0,0,1-2.52,3.22v0a3.55,3.55,0,0,1,3.05,3.5c0,2.19-1.7,4.1-5,4.1a6.88,6.88,0,0,1-3.55-.93Z" style="fill:#fff"/><path d="M654.4,261.34v-3.72h-6.34V256.4l6.09-8.71h2v8.48h1.91v1.45h-1.91v3.72Zm0-5.17v-4.55c0-.72,0-1.43.06-2.15h-.06c-.42.8-.76,1.39-1.13,2l-3.34,4.64v0Z" style="fill:#fff"/><path d="M636.84,209.44v4.94h4.75v1.26h-4.75v5H635.5v-5h-4.75v-1.26h4.75v-4.94Z" style="fill:#e46958"/><path d="M643.37,220.61v-1.13l1.45-1.41c3.49-3.31,5.06-5.08,5.08-7.13a2.44,2.44,0,0,0-2.71-2.67,4.65,4.65,0,0,0-2.89,1.15l-.59-1.3a6,6,0,0,1,3.86-1.38,3.84,3.84,0,0,1,4.18,4c0,2.52-1.83,4.56-4.7,7.33l-1.1,1v0h6.14v1.53Z" style="fill:#e46958"/><path d="M661.93,208.27a7,7,0,0,0-1.38.08,5.57,5.57,0,0,0-4.75,4.85h.07a4.05,4.05,0,0,1,3.29-1.57c2.42,0,4.12,1.74,4.12,4.41a4.56,4.56,0,0,1-4.54,4.81c-2.92,0-4.83-2.27-4.83-5.82a8.58,8.58,0,0,1,2.31-6.15,7.48,7.48,0,0,1,4.37-2,9.35,9.35,0,0,1,1.34-.1Zm-.52,7.87c0-1.95-1.11-3.13-2.82-3.13a3,3,0,0,0-2.64,1.68,1.55,1.55,0,0,0-.21.82c0,2.25,1.07,3.91,3,3.91C660.34,219.42,661.41,218.1,661.41,216.14Z" style="fill:#e46958"/><path d="M520.49,172.79v4.94h4.74V179h-4.74v5h-1.35v-5H514.4v-1.26h4.74v-4.94Z" style="fill:#e46958"/><path d="M531,172h0l-2.38,1.28-.35-1.41,3-1.59h1.57V184H531Z" style="fill:#e46958"/><path d="M545.58,171.62a7.05,7.05,0,0,0-1.39.08,5.56,5.56,0,0,0-4.74,4.85h.06a4.07,4.07,0,0,1,3.3-1.57c2.41,0,4.11,1.74,4.11,4.41a4.55,4.55,0,0,1-4.53,4.8c-2.92,0-4.83-2.26-4.83-5.81a8.58,8.58,0,0,1,2.31-6.15,7.37,7.37,0,0,1,4.37-2,9.17,9.17,0,0,1,1.34-.1Zm-.52,7.87c0-2-1.12-3.13-2.82-3.13A3,3,0,0,0,539.6,178a1.55,1.55,0,0,0-.21.82c0,2.25,1.07,3.91,3,3.91C544,182.77,545.06,181.44,545.06,179.49Z" style="fill:#e46958"/><path d="M403,31.42v4.94h4.75v1.26H403v5h-1.34v-5h-4.75V36.36h4.75V31.42Z" style="fill:#e46958"/><path d="M413.51,30.67h0L411.1,32l-.36-1.41,3-1.6h1.58V42.59h-1.79Z" style="fill:#e46958"/><path d="M420.27,42.59V41.46l1.45-1.41c3.49-3.32,5.06-5.08,5.08-7.14a2.43,2.43,0,0,0-2.71-2.66,4.67,4.67,0,0,0-2.89,1.15l-.59-1.3a6,6,0,0,1,3.86-1.39,3.84,3.84,0,0,1,4.18,4c0,2.52-1.82,4.56-4.7,7.33l-1.09,1v0H429v1.53Z" style="fill:#e46958"/><path d="M287.78,6.41v4.93h4.74V12.6h-4.74v5h-1.35v-5h-4.74V11.34h4.74V6.41Z" style="fill:#e46958"/><path d="M298.32,5.65h0l-2.37,1.28-.36-1.4,3-1.6h1.57V17.58h-1.78Z" style="fill:#e46958"/><path d="M305.52,15.46a6.29,6.29,0,0,0,3,.86c2.37,0,3.1-1.51,3.08-2.65,0-1.91-1.74-2.73-3.52-2.73h-1V9.56h1c1.34,0,3-.7,3-2.31,0-1.09-.69-2.06-2.39-2.06a5,5,0,0,0-2.73.9l-.49-1.34a6.46,6.46,0,0,1,3.57-1C311.8,3.7,313,5.29,313,7a3.4,3.4,0,0,1-2.52,3.22v0a3.54,3.54,0,0,1,3,3.5c0,2.19-1.7,4.1-5,4.1a6.85,6.85,0,0,1-3.55-.93Z" style="fill:#e46958"/><path d="M177.83,104.14v4.94h4.74v1.26h-4.74v5h-1.35v-5h-4.74v-1.26h4.74v-4.94Z" style="fill:#e46958"/><path d="M185.43,114a8.08,8.08,0,0,0,1.49-.06,5.16,5.16,0,0,0,2.85-1.32,6,6,0,0,0,1.81-3.64h-.06a4,4,0,0,1-3.22,1.47,4,4,0,0,1-4-4.17,4.68,4.68,0,0,1,4.66-4.86c2.8,0,4.52,2.27,4.52,5.76a8.63,8.63,0,0,1-2.35,6.4,6.84,6.84,0,0,1-4,1.83,9,9,0,0,1-1.7.1Zm.67-7.85a2.63,2.63,0,0,0,2.62,2.9,3.05,3.05,0,0,0,2.69-1.43,1.18,1.18,0,0,0,.17-.67c0-2.33-.86-4.12-2.79-4.12C187.21,102.84,186.1,104.23,186.1,106.16Z" style="fill:#e46958"/><path d="M56.82,90.18v4.94h4.74v1.26H56.82v5H55.47v-5H50.73V95.12h4.74V90.18Z" style="fill:#e46958"/><path d="M67.36,89.43h0L65,90.71l-.36-1.41,3-1.59h1.58v13.64H67.36Z" style="fill:#e46958"/><path d="M79.83,101.35V97.64H73.49V96.42l6.09-8.71h2v8.48h1.91v1.45H81.58v3.71Zm0-5.16V91.63c0-.71,0-1.43.07-2.14h-.07c-.42.8-.75,1.39-1.13,2l-3.34,4.65v0Z" style="fill:#e46958"/><path d="M416.35,69.48h-5.21L410.62,73a6.26,6.26,0,0,1,1.11-.09,5.71,5.71,0,0,1,2.94.74,3.88,3.88,0,0,1,1.95,3.5c0,2.67-2.12,4.66-5.08,4.66a6.67,6.67,0,0,1-3.4-.84l.46-1.4a6.2,6.2,0,0,0,2.92.75,3,3,0,0,0,3.24-3c0-1.76-1.2-3-3.93-3a12.9,12.9,0,0,0-1.89.15l.88-6.56h6.53Z" style="fill:#fff"/><path d="M423.41,69.65h-.05L421,70.93l-.35-1.41,3-1.6h1.57V81.57h-1.78Z" style="fill:#fff"/><path d="M379.66,476.18a5.71,5.71,0,0,1,4.66,2.26l-1.19.73a4.41,4.41,0,0,0-3.47-1.65,4.89,4.89,0,0,0,0,9.77,4.74,4.74,0,0,0,3.22-1.29v-2.45h-4.12v-1.33h5.61v4.34a6.24,6.24,0,0,1-4.71,2.07,6.23,6.23,0,0,1,0-12.45Z" style="fill:#284a5b"/><path d="M390.53,479.48c2.63,0,4.18,2,4.18,4.66v.34h-7a3.06,3.06,0,0,0,3.13,3,3.76,3.76,0,0,0,2.68-1.1l.65.89a4.76,4.76,0,0,1-3.46,1.33,4.57,4.57,0,0,1-.14-9.13Zm-2.86,4h5.7a2.81,2.81,0,0,0-2.86-2.89A2.89,2.89,0,0,0,387.67,483.49Z" style="fill:#284a5b"/><path d="M402.75,482.7c0-1.53-.77-2-1.94-2a3.34,3.34,0,0,0-2.58,1.35v6.35h-1.35V479.7h1.35V481a4.31,4.31,0,0,1,3.1-1.48,2.47,2.47,0,0,1,2.77,2.81v6.1h-1.35Z" style="fill:#284a5b"/><path d="M416,483.28l-3.83,5.11h-1.82l4.68-6.16-4.41-5.85h1.82l3.56,4.81,3.55-4.81h1.82l-4.4,5.84,4.67,6.17h-1.8Z" style="fill:#284a5b"/><path d="M481.69,476.38H487c2.09,0,3.37,1.26,3.37,3.06a2.74,2.74,0,0,1-2.11,2.76,3,3,0,0,1,2.35,2.95c0,1.93-1.28,3.24-3.48,3.24h-5.47Zm5.09,5.21a1.94,1.94,0,1,0,0-3.87h-3.6v3.87Zm.07,5.47a2,2,0,0,0,2.24-2.07,2,2,0,0,0-2.24-2.07h-3.67v4.14Z" style="fill:#284a5b"/><path d="M492.45,484a4.31,4.31,0,1,1,4.3,4.58A4.26,4.26,0,0,1,492.45,484Zm7.18,0c0-1.76-1-3.34-2.88-3.34s-2.9,1.58-2.9,3.34,1,3.37,2.9,3.37S499.63,485.82,499.63,484Z" style="fill:#284a5b"/><path d="M502.75,484a4.31,4.31,0,1,1,4.3,4.58A4.26,4.26,0,0,1,502.75,484Zm7.18,0c0-1.76-1-3.34-2.88-3.34s-2.9,1.58-2.9,3.34,1,3.37,2.9,3.37S509.93,485.82,509.93,484Z" style="fill:#284a5b"/><path d="M524,482.49c0-1.1-.48-1.8-1.6-1.8a3,3,0,0,0-2.3,1.33v6.37h-1.35v-5.9c0-1.1-.47-1.8-1.61-1.8A3,3,0,0,0,514.9,482v6.35h-1.35V479.7h1.35V481a3.75,3.75,0,0,1,2.81-1.48,2.24,2.24,0,0,1,2.34,1.62,3.64,3.64,0,0,1,2.91-1.62c1.59,0,2.43.88,2.43,2.63v6.28H524Z" style="fill:#284a5b"/><path d="M531.87,479.48c2.63,0,4.18,2,4.18,4.66v.34h-7a3.07,3.07,0,0,0,3.13,3,3.76,3.76,0,0,0,2.68-1.1l.65.89a4.73,4.73,0,0,1-3.46,1.33,4.57,4.57,0,0,1-.14-9.13Zm-2.86,4h5.71a2.82,2.82,0,0,0-2.87-2.89A2.89,2.89,0,0,0,529,483.49Z" style="fill:#284a5b"/><path d="M538.22,479.7h1.35v1.4a3.7,3.7,0,0,1,2.9-1.58v1.38a2.76,2.76,0,0,0-.54,0,3.19,3.19,0,0,0-2.36,1.38v6.16h-1.35Z" style="fill:#284a5b"/><path d="M544.11,486.27a4,4,0,0,0,2.86,1.24c1.33,0,2-.59,2-1.44s-1.06-1.26-2.23-1.55c-1.47-.34-3.15-.74-3.15-2.54,0-1.35,1.17-2.5,3.24-2.5a4.39,4.39,0,0,1,3.22,1.26l-.63.94a3.37,3.37,0,0,0-2.59-1.1c-1.19,0-1.92.54-1.92,1.31s1,1.12,2.12,1.39c1.51.34,3.26.77,3.26,2.7,0,1.46-1.17,2.63-3.42,2.63a4.61,4.61,0,0,1-3.51-1.37Z" style="fill:#284a5b"/><path d="M611.4,485.56a5.05,5.05,0,0,0,3.78,1.72c2.14,0,2.83-1.16,2.83-2.07,0-1.44-1.46-1.84-3-2.27-1.93-.51-4.07-1.05-4.07-3.41,0-2,1.76-3.33,4.12-3.33a5.63,5.63,0,0,1,4.27,1.68l-.9,1.1a4.57,4.57,0,0,0-3.48-1.45c-1.44,0-2.47.78-2.47,1.91s1.39,1.57,2.92,2c2,.53,4.2,1.14,4.2,3.66,0,1.75-1.19,3.53-4.43,3.53a5.93,5.93,0,0,1-4.61-1.91Z" style="fill:#284a5b"/><path d="M621.5,477.32a.9.9,0,0,1,.9-.9.91.91,0,0,1,.92.9.93.93,0,0,1-.92.92A.92.92,0,0,1,621.5,477.32Zm.23,2.38h1.35v8.69h-1.35Z" style="fill:#284a5b"/><path d="M625.78,476.38h1.35v12h-1.35Z" style="fill:#284a5b"/><path d="M633.61,479.48c2.63,0,4.18,2,4.18,4.66v.34h-7a3.07,3.07,0,0,0,3.13,3,3.8,3.8,0,0,0,2.69-1.1l.64.89a4.72,4.72,0,0,1-3.45,1.33,4.57,4.57,0,0,1-.15-9.13Zm-2.86,4h5.71a2.82,2.82,0,0,0-2.87-2.89A2.89,2.89,0,0,0,630.75,483.49Z" style="fill:#284a5b"/><path d="M645.84,482.7c0-1.53-.78-2-2-2a3.32,3.32,0,0,0-2.57,1.35v6.35H640V479.7h1.35V481a4.31,4.31,0,0,1,3.09-1.48,2.48,2.48,0,0,1,2.78,2.81v6.1h-1.35Z" style="fill:#284a5b"/><path d="M650.15,486.57v-5.69h-1.44V479.7h1.44v-2.38h1.35v2.38h1.77v1.18H651.5v5.41c0,.64.29,1.11.89,1.11a1.27,1.27,0,0,0,.91-.36l.4,1a2.22,2.22,0,0,1-1.62.56A1.78,1.78,0,0,1,650.15,486.57Z" style="fill:#284a5b"/><path d="M257.1,478.4l-4.09,10h-.61l-4.07-10v10h-1.49v-12H249l3.73,9.15,3.74-9.15h2.15v12h-1.5Z" style="fill:#284a5b"/><path d="M261.11,477.32a.91.91,0,0,1,1.82,0,.91.91,0,1,1-1.82,0Zm.24,2.38h1.35v8.69h-1.35Z" style="fill:#284a5b"/><path d="M265.4,476.38h1.35v12H265.4Z" style="fill:#284a5b"/><path d="M269.45,476.38h1.35v12h-1.35Z" style="fill:#284a5b"/><path d="M277.28,479.48c2.63,0,4.17,2,4.17,4.66v.34h-7a3.07,3.07,0,0,0,3.14,3,3.76,3.76,0,0,0,2.68-1.1l.65.89a4.76,4.76,0,0,1-3.46,1.33,4.57,4.57,0,0,1-.14-9.13Zm-2.87,4h5.71a2.81,2.81,0,0,0-2.86-2.89A2.9,2.9,0,0,0,274.41,483.49Z" style="fill:#284a5b"/><path d="M289.5,482.7c0-1.53-.77-2-1.95-2A3.32,3.32,0,0,0,285,482v6.35h-1.35V479.7H285V481a4.31,4.31,0,0,1,3.1-1.48,2.47,2.47,0,0,1,2.77,2.81v6.1H289.5Z" style="fill:#284a5b"/><path d="M293.31,477.32a.91.91,0,0,1,1.82,0,.91.91,0,1,1-1.82,0Zm.24,2.38h1.35v8.69h-1.35Z" style="fill:#284a5b"/><path d="M303,487.4a3.77,3.77,0,0,1-2.88,1.21,2.9,2.9,0,0,1-3-2.88,2.85,2.85,0,0,1,3-2.87,3.63,3.63,0,0,1,2.88,1.19v-1.56c0-1.17-.93-1.84-2.19-1.84a3.46,3.46,0,0,0-2.67,1.21l-.63-.94a4.58,4.58,0,0,1,3.48-1.44c1.84,0,3.37.83,3.37,2.93v6H303Zm0-2.48a2.91,2.91,0,0,0-2.39-1.08,1.91,1.91,0,1,0,0,3.8,2.91,2.91,0,0,0,2.39-1.08Z" style="fill:#284a5b"/><path d="M307.08,476.38h1.35v12h-1.35Z" style="fill:#284a5b"/><path d="M311.08,486.27a4,4,0,0,0,2.86,1.24c1.33,0,2.05-.59,2.05-1.44s-1.06-1.26-2.23-1.55c-1.47-.34-3.15-.74-3.15-2.54,0-1.35,1.17-2.5,3.24-2.5a4.39,4.39,0,0,1,3.22,1.26l-.62.94a3.41,3.41,0,0,0-2.6-1.1c-1.19,0-1.92.54-1.92,1.31s1,1.12,2.12,1.39c1.51.34,3.26.77,3.26,2.7,0,1.46-1.17,2.63-3.42,2.63a4.61,4.61,0,0,1-3.51-1.37Z" style="fill:#284a5b"/></svg>